<svg id="Layer_1" data-name="Layer 1" xmlns="http://www.w3.org/2000/svg" viewBox="0 0 2000 2000" fill="white"><path d="M1790.71,828.7c-6.36-92.71-127.46-149.28-311.49-162.3a597.65,597.65,0,0,0-50.38-63.06c-105.95-115.65-250.63-183.12-407.31-190S714.85,461,599.16,567c-106.08,97.2-171.6,226.91-187,368.66-130.71,83.18-208.22,173-202.86,251.37,6.58,95.52,132.22,158.58,323.52,174.11q14.22,18.25,30,35.49c105.95,115.65,250.59,183.12,407.31,190s306.68-47.73,422.33-153.68c98.72-90.42,162.34-209,183.12-339.28C1713.33,1004.89,1796.21,908.72,1790.71,828.7ZM320.13,1119.45c-3.16-41.54,29.65-90.8,88.9-141a583.92,583.92,0,0,0,43.8,245.78C372.76,1202.51,323.68,1166.33,320.13,1119.45Zm907.63,231.34c-2.56.94-20.7-14-23.93-16-9-5.79-18.14-11.36-27.46-16.61-9-5.05-18.14-9.8-27.48-14.14s-20.09-7.25-29.11-12.13c8.43-4.27,19.47-5.88,28.61-8.61q14.58-4.37,29.09-8.93,28.62-9,57-18.88,54.83-19.1,108.45-41.44,58.5-24.45,115.12-53.14C1405.56,1250.29,1323.41,1315.43,1227.76,1350.79Zm286.91-362.34c-105.52,77.47-267.13,153.42-455,203.24-2.69-19.39-5.46-38.74-5.2-58.39.09-7.35-.21-14.71-.34-22.29a8.36,8.36,0,0,1,1.43.09c17.87,5.54,36,9.91,54.62,11.82,12.42,1.25,24.32.95,35-7,5.41-4,10-8.61,12.68-14.54,3.77-8.57,6-17.79,9.82-26.31,5.67-12.55,12-24.85,18.23-37.14,5.93-11.68,12.16-23.15,14.62-36.22,1.61-8.7,3.73-17.31,5.54-26,.52-2.51,1.82-3.46,4.46-3.81,6.93-.95,13.59-2.94,19.48-7,6.75-4.63,10.82-10.86,10.08-19.13-.6-7.18-2.16-14.32-3.59-21.42-1.17-5.67-3.55-11.21-3.89-16.88-.87-12.77,2.94-25,7.27-36.79,1.64-4.59,5.45-8.57,8.74-12.42s7.14-6.92,10.39-10.65c18.89-21.65,16-58.72,15.94-86,0-33.79-4.61-68-18.37-99.09-25-56.65-78.08-97.29-135.8-119.76-42.31-16.47-88.43-24.39-133.5-18.88s-89,25-120.53,57.64C823.43,626.36,799,693,797.5,754.8c-1,41.53,7.57,82.39,11.09,123.6,3.45,40.3,1,83-5.15,122.94-3.46,22.29-4.71,45-13.2,66.22-3.93,10-6,20.65-12.63,29.48-7.45,9.78-12.51,21.29-21.73,29.81-6.93,6.5-13.07,13.94-20.47,19.78-20.91,16.58-43.93,29.87-67.87,41.6-4.19,2.07-8.44,4.11-12.63,6.19C581.5,1107,540.82,998.44,541.6,888.81q.06-12.59.91-25.19a425.64,425.64,0,0,1,35.14-144.08c101.49-231.2,386-329.84,635.4-220.29,86.21,37.87,157,95.6,208.44,164.55,6.62,8.87,12.94,17.92,18.87,27.14C1498.22,780.14,1525.45,885,1514.67,988.45Zm64.75-54.5a580,580,0,0,0-77.22-231.67c86.26,20.81,139,58.29,142.79,108.2C1647.76,847.09,1624,889.81,1579.42,934Z"/></svg>