<?xml version="1.0" encoding="utf-8"?>
<!-- Generator: Adobe Illustrator 26.0.3, SVG Export Plug-In . SVG Version: 6.00 Build 0)  -->
<svg version="1.1" id="Layer_1" xmlns="http://www.w3.org/2000/svg" xmlns:xlink="http://www.w3.org/1999/xlink" x="0px" y="0px"
	 viewBox="0 0 600 600" style="enable-background:new 0 0 600 600;" xml:space="preserve">
<style type="text/css">
	.st0{fill:#015376;}
	.st1{fill:#EE7D2D;}
	.st2{fill:#EE7E2D;}
	.st3{fill:#EF8031;}
	.st4{fill:#EE7E2E;}
</style>
<path class="st0" d="M131.6,316c-0.1-14.7,7.9-25.4,21.3-28.2c6.8-1.4,13.4-0.7,20,1.6c1.3,0.4,1.9,0.9,1.4,2.6
	c-1,2.9-1.7,5.9-2.4,8.9c-0.3,1.5-0.9,1.7-2.2,1.2c-1.5-0.6-3.1-0.9-4.6-1.2c-10.5-2-17.1,3.1-17.7,13.7c-0.1,2.4,0.1,4.8,0.7,7.1
	c1.5,6,5.2,8.9,11.5,9.3c4,0.2,8,0,11.8-1.4c2-0.7,2.3,0,2.6,1.6c0.3,2,0.6,3.9,0.9,5.9c0.8,4.9,0.9,5-4.1,6.1
	c-6.2,1.5-12.4,1.8-18.6,0.5c-12.2-2.5-19.6-11.1-20.4-23.4C131.5,318.8,131.6,317.4,131.6,316z"/>
<path class="st1" d="M575.3,311.5c0,5.4,0,5.4-4.9,6.4c-8.3,1.7-16.6,3.3-24.8,5.1c-2.2,0.5-3-0.1-3.3-2.3c-0.8-5.2-0.9-5.2,4.4-6.3
	c6.5-1.3,13.1-2.6,19.6-3.8c0.9-0.2,1.7-0.1,1.8-1.4c0.6-7.5-5.5-15.2-12.9-16.2c-6.3-0.9-13,2.3-16.1,8c-5,9.4-4.9,19.1-0.5,28.6
	c3.8,8.2,14.2,10.9,23.9,6.9c2.1-0.9,4.2-1.9,5.9-3.4c1.3-1.1,2-1,2.9,0.6c2.4,4.1,2.5,4-1.6,6.4c-7.1,4.1-14.7,5.7-22.7,4.2
	c-9.4-1.8-16.3-9.7-18.2-20.8c-1.4-8.2-1-16.4,3.1-24c5.4-10,15.7-15,26.8-12.7c9.4,1.9,13.7,8.7,15.8,17.3
	C575.1,306.7,575.4,309.2,575.3,311.5z"/>
<path class="st0" d="M229.9,317c0-7.7,0-15.4,0-23.2c0-1.5,0.1-2.5,1.9-3c10.1-3.2,20.3-4.5,30.8-2.2c2.4,0.5,3.3,1.3,1.9,3.6
	c-0.5,0.7-0.7,1.6-1,2.5c-1,2.4-1.3,5.6-3.1,6.9c-1.3,1-4.5-0.5-6.8-0.9c-0.4-0.1-0.8,0-1.2,0c-6.7-0.1-6.7-0.1-6.7,6.5
	c0,11-0.1,22,0.1,33c0,2.3-0.7,2.9-2.9,2.7c-3.5-0.2-7-0.2-10.4,0c-2.2,0.1-2.6-0.7-2.6-2.7C229.9,332.5,229.9,324.8,229.9,317z"/>
<path class="st1" d="M453.2,294.1c6.1-6.4,13.1-8.8,21.2-7.5c8.8,1.4,14.3,7.5,15.1,17.3c1,12.6,0.2,25.3,0.4,38
	c0,1.3-0.6,1.8-1.8,1.7c-0.9,0-1.8-0.1-2.7,0c-2.1,0.3-2.6-0.6-2.7-2.7c-0.1-11.7,0.6-23.4-0.3-35c-0.6-7.3-4.3-11.6-10.3-12.8
	c-6.1-1.2-16.2,4-18.6,9.5c-0.4,1-0.3,1.9-0.3,2.9c0,11.8-0.1,23.6,0.1,35.3c0.1,3-1.5,2.8-3.4,2.7c-1.9-0.1-3.8,0.6-3.8-2.8
	c0.2-16.8,0.1-33.7,0-50.5c0-2.1,0.4-3.2,2.8-2.8c0.7,0.1,1.4,0.1,2.1,0c1.9-0.3,2.5,0.5,2.3,2.3C453.1,291,453.2,292.2,453.2,294.1
	z"/>
<path class="st2" d="M503.8,314.4c0-5.9-0.1-11.9,0-17.8c0-1.8-0.5-2.6-2.4-2.4c-1.3,0.1-2.6-0.1-3.9,0.1c-2.8,0.4-3.7-0.5-3.7-3.5
	c0-2.9,1-3.4,3.6-3.3c6.3,0.2,6.3,0,6.3-6.3c0-2.4,0.1-4.8,0-7.1c-0.1-1.7,0.6-2.1,2.2-2.1c4.9-0.1,4.9-0.1,4.9,4.8
	c0,2.9,0.1,5.7,0,8.6c-0.1,1.7,0.5,2.3,2.2,2.2c3.3-0.1,6.6,0,9.9-0.1c1.7-0.1,2.2,0.5,2.2,2.2c0.1,4.6,0.1,4.6-4.6,4.6
	c-2.5,0-5,0-7.5,0c-1.4,0-2.2,0.2-2.2,1.9c0.1,11.3-0.2,22.6,0.1,33.9c0.2,7.3,3.9,9.6,10.6,7c1.3-0.5,1.8-0.5,2.3,0.9
	c1.8,4.7,1.8,4.8-3.1,6.1c-9.3,2.5-16.3-2.2-16.8-11.8c-0.3-5.9-0.1-11.9-0.1-17.8C503.9,314.4,503.8,314.4,503.8,314.4z"/>
<path class="st3" d="M440.4,315.5c0,8.5-0.1,17,0,25.5c0,2.1-0.7,2.7-2.7,2.7c-4.6-0.1-4.6,0-4.6-3.4c0-16.5,0.1-33.1-0.1-49.6
	c0-3.1,1.2-3.3,3.6-3.2c2.3,0,3.9-0.1,3.8,3.1C440.2,298.9,440.4,307.2,440.4,315.5z"/>
<path class="st4" d="M431.6,271.2c0-3,2.1-5.1,5-5.1c2.9,0,5.2,2.1,5.2,4.9c0,3-2.2,5.3-5.2,5.3
	C433.6,276.2,431.6,274.2,431.6,271.2z"/>
<path class="st1" d="M368.9,303.2c-4.3-16.2-22.9-22.4-36.4-12.2c-1.5,1.2-2.8,2.6-4.6,4.2c0-2.2,0-4,0-5.7c0-0.6,0.2-1.4-0.4-1.6
	c-1.9-0.7-4-0.5-5.9-0.2c-1.4,0.2-0.8,1.8-0.8,2.8c0,25,0,50.1,0,75.1c0,0.9,0.2,1.8,0.2,2.6c2.2,0,4.4,0,6.6,0
	c0.6-6.4,0.1-12.8,0.2-19.3c0.1-3.9,0-7.8,0-12.1c1.9,1.6,3.3,3,4.8,4.2c1.6,1.3,3.3,2.2,5.2,2.8c11,3.6,23.1-1.7,28.4-12.7
	C370.8,322.2,371.4,312.7,368.9,303.2z M359.5,328.9c-5.4,10.1-16.8,12.4-25.7,5.1c-3.9-3.2-6.6-6.8-6.1-12.4
	c0.5-5,0.2-10.1,0.1-15.1c0-2,0.5-3.7,1.7-5.2c4.7-5.9,11.1-8.4,18.3-8.3c6.6,0.1,10.9,4.3,13.3,10.3c1.4,3.4,1.8,7.1,1.8,12
	C362.8,319.3,362,324.3,359.5,328.9z"/>
<path class="st1" d="M116.9,304.8c-0.1-19.6-16.4-37.1-36.1-38.2c-9.2-0.5-18.5-0.6-27.8-0.1c-22.3,1.1-38.1,18.1-38.1,40.2
	c0,7.6,0,15.2,0,22.9c0.1,19.5,16.3,36.7,35.9,38.2c10.2,0,20.4,0,30.6,0c20-2,35.5-18.9,35.5-38.8
	C116.9,320.9,116.9,312.9,116.9,304.8z M65.6,349.9c-18-0.1-32.8-14.9-32.7-32.9c0.1-18.1,14.9-32.6,33.2-32.6
	c18,0,32.6,14.7,32.6,32.8C98.7,335.4,83.9,350.1,65.6,349.9z"/>
<path class="st0" d="M314.4,308c0-10.4,0-20.8,0-31.2c0-1.7-0.2-2.6-2.3-2c-1.9,0.5-3.9,0.6-5.9,0.9c-7.7,1.2-7.7,1.2-7.7,9
	c0,0.5,0,1,0,1.5c0,3.4,0,3.4-3.3,2.4c-14.1-4.2-26.7,2.7-30.5,16.9c-1.3,5.1-1.5,10.2-1,15.3c1.1,11.8,8.5,20.2,20.2,22.7
	c9.5,2,18.8,0.3,28-1.6c2.1-0.4,2.4-1.4,2.4-3.2C314.4,328.4,314.4,318.2,314.4,308z M296.2,330.9c-13.7,1.5-16.6-6.8-16.7-16.6
	c0-1.8,0.4-3.7,0.8-5.5c2-7.5,10.8-10.7,17.4-6.6c1.1,0.7,1,1.6,1,2.5c0,4.1,0,8.1,0,12.2c0,3.8-0.1,7.5,0,11.3
	C298.7,330.1,298,330.7,296.2,330.9z"/>
<path class="st0" d="M223.5,303.7c-0.8-8.5-5.9-13.8-14.4-15.6c-8.7-1.8-17.2-0.7-25.7,1.2c-0.9,0.2-1.6,0.6-1.7,1.7
	c-0.5,3.6-1.1,7.2-1.7,11.1c1.9-0.3,3.3-0.6,4.8-0.7c5.8-0.5,11.6-2.1,17.5-0.9c4,0.8,6.5,3.7,6.6,7.6c0,1.3-0.2,1.7-1.7,1.5
	c-4.4-0.7-8.9-0.8-13.4-0.1c-7.3,1.1-14.1,3.5-16.2,11.5c-2.8,10.7,1.2,20.1,13.7,22.2c10.4,1.8,20.8,0.6,31.1-1.6
	c1.1-0.2,1.5-0.6,1.5-1.7C223.8,327.8,224.6,315.7,223.5,303.7z M202.5,332c-1.9,0-3.8-0.1-5.6-0.6c-2.8-0.8-4.4-2.4-4.5-5.4
	c-0.1-3.1,1.5-4.8,4.2-5.7c1.9-0.7,3.9-0.8,5.9-0.8c6.5,0,6.5,0,6.5,6.3C208.9,332,208.9,332,202.5,332z"/>
<path class="st1" d="M426.9,308.9c-1.5-10-6.2-17.9-16.3-21.1c-10.5-3.3-20.5-2-28.8,6.1c-6.1,5.9-7.7,13.6-7.8,22.6
	c0.1,2.2,0.2,5.2,0.9,8.2c2.4,10.7,10.7,18.6,20.8,19.8c13.3,1.6,23-2.9,28.3-13.4C427.6,324.1,428.1,316.6,426.9,308.9z
	 M418.7,325.4c-2.5,8.3-9,12.9-17.9,12.9c-8.7,0-15.5-5-18.2-13.2c-1-3-1.4-6.2-1.3-9.4c0-2.4,0.2-4.7,0.6-7.1
	c2.4-12.1,13.6-18.6,25.5-14.9c5.4,1.7,9,5.4,10.8,10.6C420.7,311.4,420.8,318.4,418.7,325.4z"/>
<path class="st0" d="M66.2,292.9c-13.5-0.2-24.6,10.7-24.6,24.2c0,13.4,10.7,24.3,24.1,24.4c13.5,0.1,24.6-10.8,24.7-24.2
	C90.4,304,79.5,293,66.2,292.9z M65.8,328.6c-6.4,0-11.5-5.1-11.5-11.5c0.1-6.3,5.1-11.3,11.4-11.3c6.5,0,11.6,5,11.6,11.4
	C77.4,323.5,72.3,328.6,65.8,328.6z"/>
</svg>
